<svg width="20" height="20" viewBox="0 0 20 20" fill="none" xmlns="http://www.w3.org/2000/svg">
<path fill-rule="evenodd" clip-rule="evenodd" d="M0.833252 2.36498C0.833252 1.95876 0.994624 1.56917 1.28187 1.28193C1.56911 0.994687 1.9587 0.833315 2.36492 0.833315H17.6333C17.8346 0.832986 18.034 0.872367 18.22 0.949204C18.4061 1.02604 18.5752 1.13882 18.7176 1.2811C18.8601 1.42337 18.973 1.59233 19.0501 1.77832C19.1271 1.96431 19.1667 2.16367 19.1666 2.36498V17.6333C19.1668 17.8347 19.1273 18.0341 19.0504 18.2202C18.9735 18.4062 18.8606 18.5753 18.7183 18.7177C18.5759 18.8602 18.4069 18.9731 18.2209 19.0501C18.0348 19.1272 17.8354 19.1668 17.6341 19.1666H2.36492C2.16371 19.1666 1.96447 19.127 1.77858 19.05C1.5927 18.973 1.42381 18.8601 1.28157 18.7177C1.13933 18.5754 1.02653 18.4065 0.949604 18.2205C0.87268 18.0346 0.833143 17.8354 0.833252 17.6341V2.36498ZM8.08992 7.82332H10.5724V9.06998C10.9308 8.35332 11.8474 7.70832 13.2249 7.70832C15.8658 7.70832 16.4916 9.13582 16.4916 11.755V16.6066H13.8191V12.3516C13.8191 10.86 13.4608 10.0183 12.5508 10.0183C11.2883 10.0183 10.7633 10.9258 10.7633 12.3516V16.6066H8.08992V7.82332ZM3.50659 16.4925H6.17992V7.70832H3.50659V16.4916V16.4925ZM6.56242 4.84332C6.56746 5.07221 6.52673 5.2998 6.44262 5.51274C6.35851 5.72568 6.23271 5.91968 6.07261 6.08334C5.91251 6.24701 5.72133 6.37704 5.5103 6.46582C5.29926 6.5546 5.07262 6.60033 4.84367 6.60033C4.61472 6.60033 4.38808 6.5546 4.17704 6.46582C3.966 6.37704 3.77483 6.24701 3.61473 6.08334C3.45463 5.91968 3.32883 5.72568 3.24472 5.51274C3.16061 5.2998 3.11988 5.07221 3.12492 4.84332C3.13481 4.39403 3.32024 3.96647 3.64149 3.65222C3.96274 3.33797 4.39427 3.162 4.84367 3.162C5.29307 3.162 5.7246 3.33797 6.04585 3.65222C6.3671 3.96647 6.55253 4.39403 6.56242 4.84332Z" fill="black"/>
</svg>
